<?xml version="1.0" encoding="UTF-8"?>
<svg id="Capa_2" data-name="Capa 2" xmlns="http://www.w3.org/2000/svg" viewBox="0 0 583.12 251.28">
  <defs>
    <style>
      .cls-1 {
        fill: #2a6bff;
      }

      .cls-2 {
        fill: #fff;
      }
    </style>
  </defs>
  <g id="Capa_1-2" data-name="Capa 1">
    <g>
      <polygon class="cls-2" points="453.53 37.83 410.75 66.84 367.55 0 428.8 0 453.53 37.83"/>
      <polygon class="cls-2" points="406.8 76.43 308.96 142.78 371.28 142.78 425.71 105.68 406.8 76.43"/>
      <polygon class="cls-1" points="583.12 0 519.51 0 413.86 71.64 459.85 142.78 522.17 142.78 475.65 71.64 583.12 0"/>
      <path class="cls-2" d="M331.88,0h-132.52s-18.6,37.13-18.6,37.13h139.94c6.83,0,11.52,1.47,14.1,4.39,2.57,2.92,2.84,6.87.79,11.85-2.04,4.98-5.57,8.96-10.56,11.95-5,2.99-10.91,4.48-17.74,4.48h-122.93l-29.95,72.99h43.97l14.98-36.5h74.7C401.81,109.6,397.15,0,331.88,0Z"/>
      <g>
        <path class="cls-2" d="M19.74,251.28c-1.85,0-3.53-.45-5.04-1.35s-2.71-2.11-3.61-3.61-1.35-3.18-1.35-5.04v-30.01c0-1.85.45-3.53,1.35-5.04.9-1.5,2.11-2.71,3.61-3.61,1.5-.9,3.18-1.35,5.04-1.35h39.88v10.07H22.1c-.74,0-1.32.2-1.74.59s-.62.98-.62,1.77v25.15c0,.74.21,1.32.62,1.74s1,.62,1.74.62h37.51v10.07H19.74Z"/>
        <path class="cls-2" d="M76.71,251.28c-1.85,0-3.53-.45-5.04-1.35-1.51-.9-2.71-2.11-3.61-3.61s-1.35-3.18-1.35-5.04v-30.01c0-1.85.45-3.53,1.35-5.04.9-1.5,2.11-2.71,3.61-3.61,1.5-.9,3.18-1.35,5.04-1.35h30.01c1.81,0,3.46.45,4.97,1.35,1.5.9,2.72,2.11,3.65,3.61.93,1.51,1.39,3.19,1.39,5.04v30.01c0,1.85-.46,3.53-1.39,5.04-.93,1.5-2.14,2.71-3.65,3.61-1.51.9-3.16,1.35-4.97,1.35h-30.01ZM77.12,241.21h29.04c.14,0,.24-.03.31-.1.07-.07.1-.17.1-.31v-29.04c0-.14-.04-.24-.1-.31s-.17-.1-.31-.1h-29.04c-.14,0-.24.04-.31.1s-.1.17-.1.31v29.04c0,.14.04.24.1.31.07.07.17.1.31.1Z"/>
        <path class="cls-2" d="M124.36,251.28v-50.02h10.63l17.51,20.91,17.44-20.91h10.7v50.02h-10.07v-35.08l-18.06,21.6-18.13-21.54v35.01h-10Z"/>
        <path class="cls-2" d="M188.83,251.28v-49.95h39.95c1.85,0,3.53.45,5.04,1.35,1.5.9,2.72,2.12,3.65,3.65.93,1.53,1.39,3.2,1.39,5v13.2c0,1.81-.46,3.46-1.39,4.97-.93,1.51-2.14,2.71-3.65,3.61-1.5.9-3.18,1.35-5.04,1.35l-29.94.07v16.74h-10ZM199.25,224.4h29.04c.14,0,.24-.04.31-.1s.1-.15.1-.24v-12.3c0-.14-.04-.24-.1-.31s-.17-.1-.31-.1h-29.04c-.14,0-.24.04-.31.1-.07.07-.1.17-.1.31v12.3c0,.09.03.17.1.24.07.07.17.1.31.1Z"/>
        <path class="cls-2" d="M248.61,249.93c-1.5-.9-2.71-2.11-3.61-3.61-.9-1.5-1.35-3.18-1.35-5.04v-40.01h10v39.53c0,.14.04.24.1.31.07.07.17.1.31.1h29.04c.14,0,.24-.03.31-.1.07-.07.1-.17.1-.31v-39.53h10.14v40.01c0,1.85-.46,3.53-1.39,5.04-.93,1.5-2.14,2.71-3.65,3.61-1.51.9-3.16,1.35-4.97,1.35h-30.01c-1.85,0-3.53-.45-5.04-1.35Z"/>
        <path class="cls-2" d="M301.3,251.28v-50.02h10.63l17.51,20.91,17.44-20.91h10.7v50.02h-10.07v-35.08l-18.06,21.6-18.13-21.54v35.01h-10Z"/>
        <path class="cls-2" d="M365.91,211.27c0-1.85.45-3.53,1.35-5.04.9-1.5,2.11-2.71,3.61-3.61,1.5-.9,3.18-1.35,5.04-1.35h29.94c1.85,0,3.53.45,5.04,1.35,1.5.9,2.72,2.11,3.65,3.61.93,1.51,1.39,3.19,1.39,5.04v40.01h-10.14v-16.46h-29.87v16.46h-10v-40.01ZM405.78,224.82v-13.06c0-.14-.04-.24-.1-.31s-.17-.1-.31-.1h-29.04c-.14,0-.24.04-.31.1-.07.07-.1.17-.1.31v13.06h29.87Z"/>
        <path class="cls-2" d="M441.35,251.28v-39.95h-20.01v-10.07h50.02v10.07h-19.94v39.95h-10.07Z"/>
        <path class="cls-2" d="M475.18,251.28v-50.02h9.93v50.02h-9.93Z"/>
        <path class="cls-2" d="M490.74,251.28v-3.13l18.34-21.88-18.34-21.88v-3.13h10.63l14.38,17.09,14.31-17.09h10.56v3.13l-18.34,21.88,18.41,21.81v3.2h-10.63l-14.45-17.02-14.24,17.02h-10.63Z"/>
      </g>
      <path class="cls-2" d="M145.71,142.95H48.57c-39.79,0-59.01-32.06-42.84-71.48C21.91,32.06,46.15,0,85.95,0h104.42l-18.6,37.12h-75.04c-19.13,0-36.55,15.4-44.33,34.35-7.78,18.95-7.72,34.36,11.41,34.36h97.14l-15.23,37.11Z"/>
    </g>
  </g>
</svg>