<?xml version="1.0" encoding="UTF-8"?>
<svg id="Capa_2" data-name="Capa 2" xmlns="http://www.w3.org/2000/svg" viewBox="0 0 768 768">
  <defs>
    <style>
      .cls-1 {
        fill: #2a6bff;
      }

      .cls-2 {
        fill: #2d2d2d;
      }

      .cls-3 {
        fill: #fff;
      }
    </style>
  </defs>
  <g id="Capa_1-2" data-name="Capa 1">
    <rect class="cls-2" x="0" y="0" width="768" height="768"/>
    <g>
      <polygon class="cls-3" points="545.97 287.5 503.19 316.51 459.98 249.68 521.24 249.68 545.97 287.5"/>
      <polygon class="cls-3" points="499.24 326.1 401.39 392.45 463.71 392.45 518.15 355.35 499.24 326.1"/>
      <polygon class="cls-1" points="675.56 249.67 611.94 249.67 506.3 321.32 552.28 392.46 614.6 392.46 568.09 321.32 675.56 249.67"/>
      <path class="cls-3" d="M424.32,249.67h-132.52s-18.6,37.13-18.6,37.13h139.94c6.83,0,11.52,1.47,14.1,4.39,2.57,2.92,2.84,6.87.79,11.85-2.04,4.98-5.57,8.96-10.56,11.95-5,2.99-10.91,4.48-17.74,4.48h-122.93l-29.95,72.99h43.97l14.98-36.5h74.7c113.76,3.32,109.09-106.29,43.83-106.29Z"/>
      <g>
        <path class="cls-3" d="M112.18,500.96c-1.85,0-3.53-.45-5.04-1.35s-2.71-2.11-3.61-3.61-1.35-3.18-1.35-5.04v-30.01c0-1.85.45-3.53,1.35-5.04.9-1.5,2.11-2.71,3.61-3.61,1.5-.9,3.18-1.35,5.04-1.35h39.88v10.07h-37.51c-.74,0-1.32.2-1.74.59s-.62.98-.62,1.77v25.15c0,.74.21,1.32.62,1.74s1,.62,1.74.62h37.51v10.07h-39.88Z"/>
        <path class="cls-3" d="M169.14,500.96c-1.85,0-3.53-.45-5.04-1.35-1.51-.9-2.71-2.11-3.61-3.61s-1.35-3.18-1.35-5.04v-30.01c0-1.85.45-3.53,1.35-5.04.9-1.5,2.11-2.71,3.61-3.61,1.5-.9,3.18-1.35,5.04-1.35h30.01c1.81,0,3.46.45,4.97,1.35,1.5.9,2.72,2.11,3.65,3.61.93,1.51,1.39,3.19,1.39,5.04v30.01c0,1.85-.46,3.53-1.39,5.04-.93,1.5-2.14,2.71-3.65,3.61-1.51.9-3.16,1.35-4.97,1.35h-30.01ZM169.56,490.89h29.04c.14,0,.24-.03.31-.1.07-.07.1-.17.1-.31v-29.04c0-.14-.04-.24-.1-.31s-.17-.1-.31-.1h-29.04c-.14,0-.24.04-.31.1s-.1.17-.1.31v29.04c0,.14.04.24.1.31.07.07.17.1.31.1Z"/>
        <path class="cls-3" d="M216.8,500.96v-50.02h10.63l17.51,20.91,17.44-20.91h10.7v50.02h-10.07v-35.08l-18.06,21.6-18.13-21.54v35.01h-10Z"/>
        <path class="cls-3" d="M281.27,500.96v-49.95h39.95c1.85,0,3.53.45,5.04,1.35,1.5.9,2.72,2.12,3.65,3.65.93,1.53,1.39,3.2,1.39,5v13.2c0,1.81-.46,3.46-1.39,4.97-.93,1.51-2.14,2.71-3.65,3.61-1.5.9-3.18,1.35-5.04,1.35l-29.94.07v16.74h-10ZM291.69,474.07h29.04c.14,0,.24-.04.31-.1s.1-.15.1-.24v-12.3c0-.14-.04-.24-.1-.31s-.17-.1-.31-.1h-29.04c-.14,0-.24.04-.31.1-.07.07-.1.17-.1.31v12.3c0,.09.03.17.1.24.07.07.17.1.31.1Z"/>
        <path class="cls-3" d="M341.05,499.6c-1.5-.9-2.71-2.11-3.61-3.61-.9-1.5-1.35-3.18-1.35-5.04v-40.01h10v39.53c0,.14.04.24.1.31.07.07.17.1.31.1h29.04c.14,0,.24-.03.31-.1.07-.07.1-.17.1-.31v-39.53h10.14v40.01c0,1.85-.46,3.53-1.39,5.04-.93,1.5-2.14,2.71-3.65,3.61-1.51.9-3.16,1.35-4.97,1.35h-30.01c-1.85,0-3.53-.45-5.04-1.35Z"/>
        <path class="cls-3" d="M393.74,500.96v-50.02h10.63l17.51,20.91,17.44-20.91h10.7v50.02h-10.07v-35.08l-18.06,21.6-18.13-21.54v35.01h-10Z"/>
        <path class="cls-3" d="M458.35,460.94c0-1.85.45-3.53,1.35-5.04.9-1.5,2.11-2.71,3.61-3.61,1.5-.9,3.18-1.35,5.04-1.35h29.94c1.85,0,3.53.45,5.04,1.35,1.5.9,2.72,2.11,3.65,3.61.93,1.51,1.39,3.19,1.39,5.04v40.01h-10.14v-16.46h-29.87v16.46h-10v-40.01ZM498.22,474.49v-13.06c0-.14-.04-.24-.1-.31s-.17-.1-.31-.1h-29.04c-.14,0-.24.04-.31.1-.07.07-.1.17-.1.31v13.06h29.87Z"/>
        <path class="cls-3" d="M533.79,500.96v-39.95h-20.01v-10.07h50.02v10.07h-19.94v39.95h-10.07Z"/>
        <path class="cls-3" d="M567.62,500.96v-50.02h9.93v50.02h-9.93Z"/>
        <path class="cls-3" d="M583.18,500.96v-3.13l18.34-21.88-18.34-21.88v-3.13h10.63l14.38,17.09,14.31-17.09h10.56v3.13l-18.34,21.88,18.41,21.81v3.2h-10.63l-14.45-17.02-14.24,17.02h-10.63Z"/>
      </g>
      <path class="cls-3" d="M238.15,392.63h-97.14c-39.79,0-59.01-32.06-42.84-71.48,16.17-39.41,40.42-71.48,80.21-71.48h104.42l-18.6,37.12h-75.04c-19.13,0-36.55,15.4-44.33,34.35-7.78,18.95-7.72,34.36,11.41,34.36h97.14l-15.23,37.11Z"/>
    </g>
  </g>
</svg>